<mxfile host="app.diagrams.net" agent="Mozilla/5.0 (Windows NT 10.0; Win64; x64) AppleWebKit/537.36 (KHTML, like Gecko) Chrome/139.0.0.0 Safari/537.36" version="27.2.0" pages="2">
  <diagram name="페이지-1" id="AhxGJEDCU-I_Qvg6NTen">
    <mxGraphModel dx="1512" dy="425" grid="1" gridSize="10" guides="1" tooltips="1" connect="1" arrows="1" fold="1" page="1" pageScale="1" pageWidth="827" pageHeight="1169" math="0" shadow="0">
      <root>
        <mxCell id="0" />
        <mxCell id="1" parent="0" />
        <mxCell id="503uB3ZOZ9aQn6SOuRmJ-1" value="고객" style="whiteSpace=wrap;html=1;align=center;" vertex="1" parent="1">
          <mxGeometry x="231" y="180" width="94" height="30" as="geometry" />
        </mxCell>
        <mxCell id="503uB3ZOZ9aQn6SOuRmJ-2" value="고객명" style="ellipse;whiteSpace=wrap;html=1;align=center;" vertex="1" parent="1">
          <mxGeometry x="-25" y="181" width="100" height="40" as="geometry" />
        </mxCell>
        <mxCell id="503uB3ZOZ9aQn6SOuRmJ-3" value="" style="endArrow=none;html=1;rounded=0;fontSize=12;startSize=8;endSize=8;curved=1;entryX=0;entryY=0.25;entryDx=0;entryDy=0;" edge="1" parent="1" source="503uB3ZOZ9aQn6SOuRmJ-2" target="503uB3ZOZ9aQn6SOuRmJ-1">
          <mxGeometry relative="1" as="geometry">
            <mxPoint x="-4" y="128" as="sourcePoint" />
            <mxPoint x="145" y="158" as="targetPoint" />
          </mxGeometry>
        </mxCell>
        <mxCell id="503uB3ZOZ9aQn6SOuRmJ-4" value="전화번호" style="ellipse;whiteSpace=wrap;html=1;align=center;fontStyle=4;" vertex="1" parent="1">
          <mxGeometry x="110" y="89" width="100" height="40" as="geometry" />
        </mxCell>
        <mxCell id="503uB3ZOZ9aQn6SOuRmJ-5" value="" style="endArrow=none;html=1;rounded=0;fontSize=12;startSize=8;endSize=8;curved=1;entryX=0.5;entryY=0;entryDx=0;entryDy=0;" edge="1" parent="1" source="503uB3ZOZ9aQn6SOuRmJ-4" target="503uB3ZOZ9aQn6SOuRmJ-1">
          <mxGeometry relative="1" as="geometry">
            <mxPoint x="170" y="239" as="sourcePoint" />
            <mxPoint x="258" y="196" as="targetPoint" />
          </mxGeometry>
        </mxCell>
        <mxCell id="503uB3ZOZ9aQn6SOuRmJ-6" value="이메일주소" style="ellipse;whiteSpace=wrap;html=1;align=center;fontStyle=4;" vertex="1" parent="1">
          <mxGeometry x="233" y="76" width="100" height="40" as="geometry" />
        </mxCell>
        <mxCell id="503uB3ZOZ9aQn6SOuRmJ-7" value="" style="endArrow=none;html=1;rounded=0;fontSize=12;startSize=8;endSize=8;curved=1;" edge="1" parent="1" source="503uB3ZOZ9aQn6SOuRmJ-6" target="503uB3ZOZ9aQn6SOuRmJ-1">
          <mxGeometry relative="1" as="geometry">
            <mxPoint x="381" y="245" as="sourcePoint" />
            <mxPoint x="280" y="165" as="targetPoint" />
          </mxGeometry>
        </mxCell>
        <mxCell id="503uB3ZOZ9aQn6SOuRmJ-8" value="고객코드" style="ellipse;whiteSpace=wrap;html=1;align=center;fontStyle=4;" vertex="1" parent="1">
          <mxGeometry x="343" y="102" width="100" height="40" as="geometry" />
        </mxCell>
        <mxCell id="503uB3ZOZ9aQn6SOuRmJ-9" value="" style="endArrow=none;html=1;rounded=0;fontSize=12;startSize=8;endSize=8;curved=1;" edge="1" parent="1" source="503uB3ZOZ9aQn6SOuRmJ-8" target="503uB3ZOZ9aQn6SOuRmJ-1">
          <mxGeometry relative="1" as="geometry">
            <mxPoint x="428" y="231" as="sourcePoint" />
            <mxPoint x="272" y="153" as="targetPoint" />
          </mxGeometry>
        </mxCell>
        <mxCell id="503uB3ZOZ9aQn6SOuRmJ-10" value="주소" style="ellipse;shape=doubleEllipse;margin=3;whiteSpace=wrap;html=1;align=center;" vertex="1" parent="1">
          <mxGeometry x="103" y="208" width="100" height="40" as="geometry" />
        </mxCell>
        <mxCell id="503uB3ZOZ9aQn6SOuRmJ-11" value="" style="endArrow=none;html=1;rounded=0;fontSize=12;startSize=8;endSize=8;curved=1;exitX=0.593;exitY=0.108;exitDx=0;exitDy=0;exitPerimeter=0;entryX=0;entryY=0.75;entryDx=0;entryDy=0;" edge="1" parent="1" source="503uB3ZOZ9aQn6SOuRmJ-10" target="503uB3ZOZ9aQn6SOuRmJ-1">
          <mxGeometry relative="1" as="geometry">
            <mxPoint x="172" y="203" as="sourcePoint" />
            <mxPoint x="183.7986008836524" y="173" as="targetPoint" />
          </mxGeometry>
        </mxCell>
        <mxCell id="503uB3ZOZ9aQn6SOuRmJ-12" value="기본주소" style="ellipse;whiteSpace=wrap;html=1;align=center;" vertex="1" parent="1">
          <mxGeometry x="16" y="266" width="100" height="40" as="geometry" />
        </mxCell>
        <mxCell id="503uB3ZOZ9aQn6SOuRmJ-13" value="상세주소" style="ellipse;whiteSpace=wrap;html=1;align=center;" vertex="1" parent="1">
          <mxGeometry x="125" y="268" width="100" height="40" as="geometry" />
        </mxCell>
        <mxCell id="503uB3ZOZ9aQn6SOuRmJ-14" value="" style="endArrow=none;html=1;rounded=0;fontSize=12;startSize=8;endSize=8;curved=1;entryX=0.3;entryY=0.875;entryDx=0;entryDy=0;entryPerimeter=0;exitX=0.67;exitY=0.058;exitDx=0;exitDy=0;exitPerimeter=0;" edge="1" parent="1" source="503uB3ZOZ9aQn6SOuRmJ-12" target="503uB3ZOZ9aQn6SOuRmJ-10">
          <mxGeometry relative="1" as="geometry">
            <mxPoint x="-31" y="275" as="sourcePoint" />
            <mxPoint x="52" y="245" as="targetPoint" />
          </mxGeometry>
        </mxCell>
        <mxCell id="503uB3ZOZ9aQn6SOuRmJ-15" value="" style="endArrow=none;html=1;rounded=0;fontSize=12;startSize=8;endSize=8;curved=1;entryX=0.633;entryY=0.925;entryDx=0;entryDy=0;entryPerimeter=0;" edge="1" parent="1" source="503uB3ZOZ9aQn6SOuRmJ-13" target="503uB3ZOZ9aQn6SOuRmJ-10">
          <mxGeometry relative="1" as="geometry">
            <mxPoint x="275" y="295" as="sourcePoint" />
            <mxPoint x="325" y="270" as="targetPoint" />
          </mxGeometry>
        </mxCell>
        <mxCell id="503uB3ZOZ9aQn6SOuRmJ-16" value="가입일" style="ellipse;whiteSpace=wrap;html=1;align=center;" vertex="1" parent="1">
          <mxGeometry x="320" y="239" width="100" height="40" as="geometry" />
        </mxCell>
        <mxCell id="503uB3ZOZ9aQn6SOuRmJ-17" value="" style="endArrow=none;html=1;rounded=0;fontSize=12;startSize=8;endSize=8;curved=1;" edge="1" parent="1" source="503uB3ZOZ9aQn6SOuRmJ-16" target="503uB3ZOZ9aQn6SOuRmJ-1">
          <mxGeometry relative="1" as="geometry">
            <mxPoint x="570" y="286" as="sourcePoint" />
            <mxPoint x="592" y="247" as="targetPoint" />
          </mxGeometry>
        </mxCell>
        <mxCell id="503uB3ZOZ9aQn6SOuRmJ-18" value="지역" style="whiteSpace=wrap;html=1;align=center;" vertex="1" parent="1">
          <mxGeometry x="534" y="295" width="100" height="40" as="geometry" />
        </mxCell>
        <mxCell id="503uB3ZOZ9aQn6SOuRmJ-19" value="지역명" style="ellipse;whiteSpace=wrap;html=1;align=center;" vertex="1" parent="1">
          <mxGeometry x="440" y="352" width="100" height="40" as="geometry" />
        </mxCell>
        <mxCell id="503uB3ZOZ9aQn6SOuRmJ-20" value="" style="endArrow=none;html=1;rounded=0;fontSize=12;startSize=8;endSize=8;curved=1;" edge="1" parent="1" source="503uB3ZOZ9aQn6SOuRmJ-18" target="503uB3ZOZ9aQn6SOuRmJ-19">
          <mxGeometry relative="1" as="geometry">
            <mxPoint x="522" y="343" as="sourcePoint" />
            <mxPoint x="500" y="345" as="targetPoint" />
          </mxGeometry>
        </mxCell>
        <mxCell id="503uB3ZOZ9aQn6SOuRmJ-21" value="지역코드" style="ellipse;whiteSpace=wrap;html=1;align=center;fontStyle=4;" vertex="1" parent="1">
          <mxGeometry x="583" y="356" width="100" height="40" as="geometry" />
        </mxCell>
        <mxCell id="503uB3ZOZ9aQn6SOuRmJ-22" value="" style="endArrow=none;html=1;rounded=0;fontSize=12;startSize=8;endSize=8;curved=1;exitX=0.5;exitY=0;exitDx=0;exitDy=0;entryX=0.75;entryY=1;entryDx=0;entryDy=0;" edge="1" parent="1" source="503uB3ZOZ9aQn6SOuRmJ-21" target="503uB3ZOZ9aQn6SOuRmJ-18">
          <mxGeometry relative="1" as="geometry">
            <mxPoint x="660" y="288" as="sourcePoint" />
            <mxPoint x="627" y="308" as="targetPoint" />
          </mxGeometry>
        </mxCell>
        <mxCell id="503uB3ZOZ9aQn6SOuRmJ-23" value="제품" style="whiteSpace=wrap;html=1;align=center;" vertex="1" parent="1">
          <mxGeometry x="236" y="528" width="94" height="30" as="geometry" />
        </mxCell>
        <mxCell id="503uB3ZOZ9aQn6SOuRmJ-24" value="" style="endArrow=none;html=1;rounded=0;fontSize=12;startSize=8;endSize=8;curved=1;exitX=0.58;exitY=0.975;exitDx=0;exitDy=0;exitPerimeter=0;" edge="1" parent="1" source="503uB3ZOZ9aQn6SOuRmJ-33" target="503uB3ZOZ9aQn6SOuRmJ-23">
          <mxGeometry relative="1" as="geometry">
            <mxPoint x="287.04779176814134" y="463.9963728690309" as="sourcePoint" />
            <mxPoint x="285" y="513" as="targetPoint" />
          </mxGeometry>
        </mxCell>
        <mxCell id="503uB3ZOZ9aQn6SOuRmJ-25" value="제품코드" style="ellipse;whiteSpace=wrap;html=1;align=center;fontStyle=4;" vertex="1" parent="1">
          <mxGeometry x="348" y="450" width="100" height="40" as="geometry" />
        </mxCell>
        <mxCell id="503uB3ZOZ9aQn6SOuRmJ-26" value="" style="endArrow=none;html=1;rounded=0;fontSize=12;startSize=8;endSize=8;curved=1;" edge="1" parent="1" source="503uB3ZOZ9aQn6SOuRmJ-25" target="503uB3ZOZ9aQn6SOuRmJ-23">
          <mxGeometry relative="1" as="geometry">
            <mxPoint x="433" y="579" as="sourcePoint" />
            <mxPoint x="277" y="501" as="targetPoint" />
          </mxGeometry>
        </mxCell>
        <mxCell id="503uB3ZOZ9aQn6SOuRmJ-27" value="제품색상" style="ellipse;shape=doubleEllipse;margin=3;whiteSpace=wrap;html=1;align=center;" vertex="1" parent="1">
          <mxGeometry x="194" y="593" width="100" height="40" as="geometry" />
        </mxCell>
        <mxCell id="503uB3ZOZ9aQn6SOuRmJ-28" value="" style="endArrow=none;html=1;rounded=0;fontSize=12;startSize=8;endSize=8;curved=1;exitX=0.593;exitY=0.108;exitDx=0;exitDy=0;exitPerimeter=0;" edge="1" parent="1" source="503uB3ZOZ9aQn6SOuRmJ-27" target="503uB3ZOZ9aQn6SOuRmJ-23">
          <mxGeometry relative="1" as="geometry">
            <mxPoint x="263" y="588" as="sourcePoint" />
            <mxPoint x="395" y="560" as="targetPoint" />
          </mxGeometry>
        </mxCell>
        <mxCell id="503uB3ZOZ9aQn6SOuRmJ-29" value="제품구분" style="ellipse;whiteSpace=wrap;html=1;align=center;" vertex="1" parent="1">
          <mxGeometry x="325" y="587" width="100" height="40" as="geometry" />
        </mxCell>
        <mxCell id="503uB3ZOZ9aQn6SOuRmJ-30" value="" style="endArrow=none;html=1;rounded=0;fontSize=12;startSize=8;endSize=8;curved=1;" edge="1" parent="1" source="503uB3ZOZ9aQn6SOuRmJ-29" target="503uB3ZOZ9aQn6SOuRmJ-23">
          <mxGeometry relative="1" as="geometry">
            <mxPoint x="575" y="634" as="sourcePoint" />
            <mxPoint x="597" y="595" as="targetPoint" />
          </mxGeometry>
        </mxCell>
        <mxCell id="503uB3ZOZ9aQn6SOuRmJ-31" value="제품명" style="ellipse;whiteSpace=wrap;html=1;align=center;" vertex="1" parent="1">
          <mxGeometry x="401" y="518" width="100" height="40" as="geometry" />
        </mxCell>
        <mxCell id="503uB3ZOZ9aQn6SOuRmJ-32" value="" style="endArrow=none;html=1;rounded=0;fontSize=12;startSize=8;endSize=8;curved=1;entryX=1;entryY=0.25;entryDx=0;entryDy=0;exitX=0.037;exitY=0.717;exitDx=0;exitDy=0;exitPerimeter=0;" edge="1" parent="1" source="503uB3ZOZ9aQn6SOuRmJ-31" target="503uB3ZOZ9aQn6SOuRmJ-23">
          <mxGeometry relative="1" as="geometry">
            <mxPoint x="432" y="528" as="sourcePoint" />
            <mxPoint x="368" y="569" as="targetPoint" />
          </mxGeometry>
        </mxCell>
        <mxCell id="503uB3ZOZ9aQn6SOuRmJ-33" value="가격" style="ellipse;whiteSpace=wrap;html=1;align=center;" vertex="1" parent="1">
          <mxGeometry x="245" y="440" width="100" height="40" as="geometry" />
        </mxCell>
        <mxCell id="503uB3ZOZ9aQn6SOuRmJ-34" value="관리" style="shape=rhombus;perimeter=rhombusPerimeter;whiteSpace=wrap;html=1;align=center;" vertex="1" parent="1">
          <mxGeometry x="448" y="208" width="120" height="60" as="geometry" />
        </mxCell>
        <mxCell id="503uB3ZOZ9aQn6SOuRmJ-35" value="구매" style="shape=rhombus;perimeter=rhombusPerimeter;whiteSpace=wrap;html=1;align=center;" vertex="1" parent="1">
          <mxGeometry x="100" y="382" width="120" height="60" as="geometry" />
        </mxCell>
        <mxCell id="503uB3ZOZ9aQn6SOuRmJ-36" value="수량" style="ellipse;whiteSpace=wrap;html=1;align=center;" vertex="1" parent="1">
          <mxGeometry x="87" y="473" width="100" height="40" as="geometry" />
        </mxCell>
        <mxCell id="503uB3ZOZ9aQn6SOuRmJ-37" value="" style="endArrow=none;html=1;rounded=0;fontSize=12;startSize=8;endSize=8;curved=1;entryX=1;entryY=0.5;entryDx=0;entryDy=0;exitX=0;exitY=0.5;exitDx=0;exitDy=0;" edge="1" parent="1" source="503uB3ZOZ9aQn6SOuRmJ-34" target="503uB3ZOZ9aQn6SOuRmJ-1">
          <mxGeometry relative="1" as="geometry">
            <mxPoint x="437" y="201" as="sourcePoint" />
            <mxPoint x="362" y="190" as="targetPoint" />
          </mxGeometry>
        </mxCell>
        <mxCell id="503uB3ZOZ9aQn6SOuRmJ-38" value="N" style="edgeLabel;html=1;align=center;verticalAlign=middle;resizable=0;points=[];fontSize=12;" vertex="1" connectable="0" parent="503uB3ZOZ9aQn6SOuRmJ-37">
          <mxGeometry x="-0.5296" y="2" relative="1" as="geometry">
            <mxPoint x="19" y="15" as="offset" />
          </mxGeometry>
        </mxCell>
        <mxCell id="503uB3ZOZ9aQn6SOuRmJ-39" value="" style="endArrow=none;html=1;rounded=0;fontSize=12;startSize=8;endSize=8;curved=1;entryX=1;entryY=1;entryDx=0;entryDy=0;exitX=0.5;exitY=0;exitDx=0;exitDy=0;" edge="1" parent="1" source="503uB3ZOZ9aQn6SOuRmJ-18" target="503uB3ZOZ9aQn6SOuRmJ-34">
          <mxGeometry relative="1" as="geometry">
            <mxPoint x="536" y="263" as="sourcePoint" />
            <mxPoint x="413" y="220" as="targetPoint" />
          </mxGeometry>
        </mxCell>
        <mxCell id="503uB3ZOZ9aQn6SOuRmJ-40" value="1" style="edgeLabel;html=1;align=center;verticalAlign=middle;resizable=0;points=[];fontSize=12;" vertex="1" connectable="0" parent="503uB3ZOZ9aQn6SOuRmJ-39">
          <mxGeometry x="0.4536" y="-2" relative="1" as="geometry">
            <mxPoint x="11" y="-10" as="offset" />
          </mxGeometry>
        </mxCell>
        <mxCell id="503uB3ZOZ9aQn6SOuRmJ-41" value="구매번호" style="ellipse;whiteSpace=wrap;html=1;align=center;fontStyle=4;" vertex="1" parent="1">
          <mxGeometry x="-13" y="422" width="100" height="40" as="geometry" />
        </mxCell>
        <mxCell id="503uB3ZOZ9aQn6SOuRmJ-42" value="구매일자" style="ellipse;whiteSpace=wrap;html=1;align=center;" vertex="1" parent="1">
          <mxGeometry x="-15" y="361" width="100" height="40" as="geometry" />
        </mxCell>
        <mxCell id="503uB3ZOZ9aQn6SOuRmJ-43" value="" style="endArrow=none;html=1;rounded=0;fontSize=12;startSize=8;endSize=8;curved=1;entryX=0;entryY=0;entryDx=0;entryDy=0;exitX=1;exitY=0.5;exitDx=0;exitDy=0;" edge="1" parent="1" source="503uB3ZOZ9aQn6SOuRmJ-42" target="503uB3ZOZ9aQn6SOuRmJ-35">
          <mxGeometry relative="1" as="geometry">
            <mxPoint x="92" y="384.5" as="sourcePoint" />
            <mxPoint x="142" y="359.5" as="targetPoint" />
          </mxGeometry>
        </mxCell>
        <mxCell id="503uB3ZOZ9aQn6SOuRmJ-44" value="" style="endArrow=none;html=1;rounded=0;fontSize=12;startSize=8;endSize=8;curved=1;exitX=1;exitY=0;exitDx=0;exitDy=0;" edge="1" parent="1" source="503uB3ZOZ9aQn6SOuRmJ-41" target="503uB3ZOZ9aQn6SOuRmJ-35">
          <mxGeometry relative="1" as="geometry">
            <mxPoint x="109" y="385" as="sourcePoint" />
            <mxPoint x="121" y="416" as="targetPoint" />
          </mxGeometry>
        </mxCell>
        <mxCell id="503uB3ZOZ9aQn6SOuRmJ-45" value="" style="endArrow=none;html=1;rounded=0;fontSize=12;startSize=8;endSize=8;curved=1;exitX=0.373;exitY=0.025;exitDx=0;exitDy=0;exitPerimeter=0;entryX=0.314;entryY=0.822;entryDx=0;entryDy=0;entryPerimeter=0;" edge="1" parent="1" source="503uB3ZOZ9aQn6SOuRmJ-36" target="503uB3ZOZ9aQn6SOuRmJ-35">
          <mxGeometry relative="1" as="geometry">
            <mxPoint x="92" y="454" as="sourcePoint" />
            <mxPoint x="136" y="446" as="targetPoint" />
          </mxGeometry>
        </mxCell>
        <mxCell id="503uB3ZOZ9aQn6SOuRmJ-46" value="" style="endArrow=none;html=1;rounded=0;fontSize=12;startSize=8;endSize=8;curved=1;entryX=0.5;entryY=1;entryDx=0;entryDy=0;exitX=1;exitY=0;exitDx=0;exitDy=0;" edge="1" parent="1" source="503uB3ZOZ9aQn6SOuRmJ-35" target="503uB3ZOZ9aQn6SOuRmJ-1">
          <mxGeometry relative="1" as="geometry">
            <mxPoint x="305.5" y="283" as="sourcePoint" />
            <mxPoint x="260.5" y="251" as="targetPoint" />
          </mxGeometry>
        </mxCell>
        <mxCell id="503uB3ZOZ9aQn6SOuRmJ-47" value="N" style="edgeLabel;html=1;align=center;verticalAlign=middle;resizable=0;points=[];fontSize=12;" vertex="1" connectable="0" parent="503uB3ZOZ9aQn6SOuRmJ-46">
          <mxGeometry x="-0.1668" y="3" relative="1" as="geometry">
            <mxPoint x="-14" y="67" as="offset" />
          </mxGeometry>
        </mxCell>
        <mxCell id="503uB3ZOZ9aQn6SOuRmJ-48" value="" style="endArrow=none;html=1;rounded=0;fontSize=12;startSize=8;endSize=8;curved=1;entryX=0.25;entryY=0;entryDx=0;entryDy=0;exitX=0.664;exitY=0.822;exitDx=0;exitDy=0;exitPerimeter=0;" edge="1" parent="1" source="503uB3ZOZ9aQn6SOuRmJ-35" target="503uB3ZOZ9aQn6SOuRmJ-23">
          <mxGeometry relative="1" as="geometry">
            <mxPoint x="220" y="507" as="sourcePoint" />
            <mxPoint x="308" y="320" as="targetPoint" />
          </mxGeometry>
        </mxCell>
        <mxCell id="503uB3ZOZ9aQn6SOuRmJ-49" value="M" style="edgeLabel;html=1;align=center;verticalAlign=middle;resizable=0;points=[];fontSize=12;" vertex="1" connectable="0" parent="503uB3ZOZ9aQn6SOuRmJ-48">
          <mxGeometry x="-0.57" y="2" relative="1" as="geometry">
            <mxPoint x="7" y="-12" as="offset" />
          </mxGeometry>
        </mxCell>
        <mxCell id="503uB3ZOZ9aQn6SOuRmJ-50" value="고객" style="whiteSpace=wrap;html=1;align=center;" vertex="1" parent="1">
          <mxGeometry x="456" y="894" width="94" height="30" as="geometry" />
        </mxCell>
        <mxCell id="503uB3ZOZ9aQn6SOuRmJ-51" value="고객명" style="ellipse;whiteSpace=wrap;html=1;align=center;" vertex="1" parent="1">
          <mxGeometry x="200" y="895" width="100" height="40" as="geometry" />
        </mxCell>
        <mxCell id="503uB3ZOZ9aQn6SOuRmJ-52" value="" style="endArrow=none;html=1;rounded=0;fontSize=12;startSize=8;endSize=8;curved=1;entryX=0;entryY=0.25;entryDx=0;entryDy=0;" edge="1" parent="1" source="503uB3ZOZ9aQn6SOuRmJ-51" target="503uB3ZOZ9aQn6SOuRmJ-50">
          <mxGeometry relative="1" as="geometry">
            <mxPoint x="221" y="842" as="sourcePoint" />
            <mxPoint x="370" y="872" as="targetPoint" />
          </mxGeometry>
        </mxCell>
        <mxCell id="503uB3ZOZ9aQn6SOuRmJ-53" value="전화번호" style="ellipse;whiteSpace=wrap;html=1;align=center;fontStyle=4;" vertex="1" parent="1">
          <mxGeometry x="335" y="803" width="100" height="40" as="geometry" />
        </mxCell>
        <mxCell id="503uB3ZOZ9aQn6SOuRmJ-54" value="" style="endArrow=none;html=1;rounded=0;fontSize=12;startSize=8;endSize=8;curved=1;entryX=0.5;entryY=0;entryDx=0;entryDy=0;" edge="1" parent="1" source="503uB3ZOZ9aQn6SOuRmJ-53" target="503uB3ZOZ9aQn6SOuRmJ-50">
          <mxGeometry relative="1" as="geometry">
            <mxPoint x="395" y="953" as="sourcePoint" />
            <mxPoint x="483" y="910" as="targetPoint" />
          </mxGeometry>
        </mxCell>
        <mxCell id="503uB3ZOZ9aQn6SOuRmJ-55" value="이메일주소" style="ellipse;whiteSpace=wrap;html=1;align=center;fontStyle=4;" vertex="1" parent="1">
          <mxGeometry x="458" y="790" width="100" height="40" as="geometry" />
        </mxCell>
        <mxCell id="503uB3ZOZ9aQn6SOuRmJ-56" value="" style="endArrow=none;html=1;rounded=0;fontSize=12;startSize=8;endSize=8;curved=1;" edge="1" parent="1" source="503uB3ZOZ9aQn6SOuRmJ-55" target="503uB3ZOZ9aQn6SOuRmJ-50">
          <mxGeometry relative="1" as="geometry">
            <mxPoint x="606" y="959" as="sourcePoint" />
            <mxPoint x="505" y="879" as="targetPoint" />
          </mxGeometry>
        </mxCell>
        <mxCell id="503uB3ZOZ9aQn6SOuRmJ-57" value="고객코드" style="ellipse;whiteSpace=wrap;html=1;align=center;fontStyle=4;" vertex="1" parent="1">
          <mxGeometry x="568" y="816" width="100" height="40" as="geometry" />
        </mxCell>
        <mxCell id="503uB3ZOZ9aQn6SOuRmJ-58" value="" style="endArrow=none;html=1;rounded=0;fontSize=12;startSize=8;endSize=8;curved=1;" edge="1" parent="1" source="503uB3ZOZ9aQn6SOuRmJ-57" target="503uB3ZOZ9aQn6SOuRmJ-50">
          <mxGeometry relative="1" as="geometry">
            <mxPoint x="653" y="945" as="sourcePoint" />
            <mxPoint x="497" y="867" as="targetPoint" />
          </mxGeometry>
        </mxCell>
        <mxCell id="503uB3ZOZ9aQn6SOuRmJ-59" value="주소" style="ellipse;shape=doubleEllipse;margin=3;whiteSpace=wrap;html=1;align=center;" vertex="1" parent="1">
          <mxGeometry x="328" y="922" width="100" height="40" as="geometry" />
        </mxCell>
        <mxCell id="503uB3ZOZ9aQn6SOuRmJ-60" value="" style="endArrow=none;html=1;rounded=0;fontSize=12;startSize=8;endSize=8;curved=1;exitX=0.593;exitY=0.108;exitDx=0;exitDy=0;exitPerimeter=0;entryX=0;entryY=0.75;entryDx=0;entryDy=0;" edge="1" parent="1" source="503uB3ZOZ9aQn6SOuRmJ-59" target="503uB3ZOZ9aQn6SOuRmJ-50">
          <mxGeometry relative="1" as="geometry">
            <mxPoint x="397" y="917" as="sourcePoint" />
            <mxPoint x="408.7986008836524" y="887" as="targetPoint" />
          </mxGeometry>
        </mxCell>
        <mxCell id="503uB3ZOZ9aQn6SOuRmJ-61" value="기본주소" style="ellipse;whiteSpace=wrap;html=1;align=center;" vertex="1" parent="1">
          <mxGeometry x="241" y="980" width="100" height="40" as="geometry" />
        </mxCell>
        <mxCell id="503uB3ZOZ9aQn6SOuRmJ-62" value="상세주소" style="ellipse;whiteSpace=wrap;html=1;align=center;" vertex="1" parent="1">
          <mxGeometry x="350" y="982" width="100" height="40" as="geometry" />
        </mxCell>
        <mxCell id="503uB3ZOZ9aQn6SOuRmJ-63" value="" style="endArrow=none;html=1;rounded=0;fontSize=12;startSize=8;endSize=8;curved=1;entryX=0.3;entryY=0.875;entryDx=0;entryDy=0;entryPerimeter=0;exitX=0.67;exitY=0.058;exitDx=0;exitDy=0;exitPerimeter=0;" edge="1" parent="1" source="503uB3ZOZ9aQn6SOuRmJ-61" target="503uB3ZOZ9aQn6SOuRmJ-59">
          <mxGeometry relative="1" as="geometry">
            <mxPoint x="194" y="989" as="sourcePoint" />
            <mxPoint x="277" y="959" as="targetPoint" />
          </mxGeometry>
        </mxCell>
        <mxCell id="503uB3ZOZ9aQn6SOuRmJ-64" value="" style="endArrow=none;html=1;rounded=0;fontSize=12;startSize=8;endSize=8;curved=1;entryX=0.633;entryY=0.925;entryDx=0;entryDy=0;entryPerimeter=0;" edge="1" parent="1" source="503uB3ZOZ9aQn6SOuRmJ-62" target="503uB3ZOZ9aQn6SOuRmJ-59">
          <mxGeometry relative="1" as="geometry">
            <mxPoint x="500" y="1009" as="sourcePoint" />
            <mxPoint x="550" y="984" as="targetPoint" />
          </mxGeometry>
        </mxCell>
        <mxCell id="503uB3ZOZ9aQn6SOuRmJ-65" value="가입일" style="ellipse;whiteSpace=wrap;html=1;align=center;" vertex="1" parent="1">
          <mxGeometry x="545" y="953" width="100" height="40" as="geometry" />
        </mxCell>
        <mxCell id="503uB3ZOZ9aQn6SOuRmJ-66" value="" style="endArrow=none;html=1;rounded=0;fontSize=12;startSize=8;endSize=8;curved=1;" edge="1" parent="1" source="503uB3ZOZ9aQn6SOuRmJ-65" target="503uB3ZOZ9aQn6SOuRmJ-50">
          <mxGeometry relative="1" as="geometry">
            <mxPoint x="795" y="1000" as="sourcePoint" />
            <mxPoint x="817" y="961" as="targetPoint" />
          </mxGeometry>
        </mxCell>
        <mxCell id="503uB3ZOZ9aQn6SOuRmJ-67" value="지역" style="whiteSpace=wrap;html=1;align=center;" vertex="1" parent="1">
          <mxGeometry x="759" y="1009" width="100" height="40" as="geometry" />
        </mxCell>
        <mxCell id="503uB3ZOZ9aQn6SOuRmJ-68" value="지역명" style="ellipse;whiteSpace=wrap;html=1;align=center;" vertex="1" parent="1">
          <mxGeometry x="665" y="1066" width="100" height="40" as="geometry" />
        </mxCell>
        <mxCell id="503uB3ZOZ9aQn6SOuRmJ-69" value="" style="endArrow=none;html=1;rounded=0;fontSize=12;startSize=8;endSize=8;curved=1;" edge="1" parent="1" source="503uB3ZOZ9aQn6SOuRmJ-67" target="503uB3ZOZ9aQn6SOuRmJ-68">
          <mxGeometry relative="1" as="geometry">
            <mxPoint x="747" y="1057" as="sourcePoint" />
            <mxPoint x="725" y="1059" as="targetPoint" />
          </mxGeometry>
        </mxCell>
        <mxCell id="503uB3ZOZ9aQn6SOuRmJ-70" value="지역코드" style="ellipse;whiteSpace=wrap;html=1;align=center;fontStyle=4;" vertex="1" parent="1">
          <mxGeometry x="808" y="1070" width="100" height="40" as="geometry" />
        </mxCell>
        <mxCell id="503uB3ZOZ9aQn6SOuRmJ-71" value="" style="endArrow=none;html=1;rounded=0;fontSize=12;startSize=8;endSize=8;curved=1;exitX=0.5;exitY=0;exitDx=0;exitDy=0;entryX=0.75;entryY=1;entryDx=0;entryDy=0;" edge="1" parent="1" source="503uB3ZOZ9aQn6SOuRmJ-70" target="503uB3ZOZ9aQn6SOuRmJ-67">
          <mxGeometry relative="1" as="geometry">
            <mxPoint x="885" y="1002" as="sourcePoint" />
            <mxPoint x="852" y="1022" as="targetPoint" />
          </mxGeometry>
        </mxCell>
        <mxCell id="503uB3ZOZ9aQn6SOuRmJ-72" value="제품" style="whiteSpace=wrap;html=1;align=center;" vertex="1" parent="1">
          <mxGeometry x="461" y="1242" width="94" height="30" as="geometry" />
        </mxCell>
        <mxCell id="503uB3ZOZ9aQn6SOuRmJ-73" value="" style="endArrow=none;html=1;rounded=0;fontSize=12;startSize=8;endSize=8;curved=1;exitX=0.58;exitY=0.975;exitDx=0;exitDy=0;exitPerimeter=0;" edge="1" parent="1" source="503uB3ZOZ9aQn6SOuRmJ-82" target="503uB3ZOZ9aQn6SOuRmJ-72">
          <mxGeometry relative="1" as="geometry">
            <mxPoint x="512.0477917681413" y="1177.996372869031" as="sourcePoint" />
            <mxPoint x="510" y="1227" as="targetPoint" />
          </mxGeometry>
        </mxCell>
        <mxCell id="503uB3ZOZ9aQn6SOuRmJ-74" value="제품코드" style="ellipse;whiteSpace=wrap;html=1;align=center;fontStyle=4;" vertex="1" parent="1">
          <mxGeometry x="573" y="1164" width="100" height="40" as="geometry" />
        </mxCell>
        <mxCell id="503uB3ZOZ9aQn6SOuRmJ-75" value="" style="endArrow=none;html=1;rounded=0;fontSize=12;startSize=8;endSize=8;curved=1;" edge="1" parent="1" source="503uB3ZOZ9aQn6SOuRmJ-74" target="503uB3ZOZ9aQn6SOuRmJ-72">
          <mxGeometry relative="1" as="geometry">
            <mxPoint x="658" y="1293" as="sourcePoint" />
            <mxPoint x="502" y="1215" as="targetPoint" />
          </mxGeometry>
        </mxCell>
        <mxCell id="503uB3ZOZ9aQn6SOuRmJ-76" value="제품색상" style="ellipse;shape=doubleEllipse;margin=3;whiteSpace=wrap;html=1;align=center;" vertex="1" parent="1">
          <mxGeometry x="419" y="1307" width="100" height="40" as="geometry" />
        </mxCell>
        <mxCell id="503uB3ZOZ9aQn6SOuRmJ-77" value="" style="endArrow=none;html=1;rounded=0;fontSize=12;startSize=8;endSize=8;curved=1;exitX=0.593;exitY=0.108;exitDx=0;exitDy=0;exitPerimeter=0;" edge="1" parent="1" source="503uB3ZOZ9aQn6SOuRmJ-76" target="503uB3ZOZ9aQn6SOuRmJ-72">
          <mxGeometry relative="1" as="geometry">
            <mxPoint x="488" y="1302" as="sourcePoint" />
            <mxPoint x="620" y="1274" as="targetPoint" />
          </mxGeometry>
        </mxCell>
        <mxCell id="503uB3ZOZ9aQn6SOuRmJ-78" value="제품구분" style="ellipse;whiteSpace=wrap;html=1;align=center;" vertex="1" parent="1">
          <mxGeometry x="550" y="1301" width="100" height="40" as="geometry" />
        </mxCell>
        <mxCell id="503uB3ZOZ9aQn6SOuRmJ-79" value="" style="endArrow=none;html=1;rounded=0;fontSize=12;startSize=8;endSize=8;curved=1;" edge="1" parent="1" source="503uB3ZOZ9aQn6SOuRmJ-78" target="503uB3ZOZ9aQn6SOuRmJ-72">
          <mxGeometry relative="1" as="geometry">
            <mxPoint x="800" y="1348" as="sourcePoint" />
            <mxPoint x="822" y="1309" as="targetPoint" />
          </mxGeometry>
        </mxCell>
        <mxCell id="503uB3ZOZ9aQn6SOuRmJ-80" value="제품명" style="ellipse;whiteSpace=wrap;html=1;align=center;" vertex="1" parent="1">
          <mxGeometry x="626" y="1232" width="100" height="40" as="geometry" />
        </mxCell>
        <mxCell id="503uB3ZOZ9aQn6SOuRmJ-81" value="" style="endArrow=none;html=1;rounded=0;fontSize=12;startSize=8;endSize=8;curved=1;entryX=1;entryY=0.25;entryDx=0;entryDy=0;exitX=0.037;exitY=0.717;exitDx=0;exitDy=0;exitPerimeter=0;" edge="1" parent="1" source="503uB3ZOZ9aQn6SOuRmJ-80" target="503uB3ZOZ9aQn6SOuRmJ-72">
          <mxGeometry relative="1" as="geometry">
            <mxPoint x="657" y="1242" as="sourcePoint" />
            <mxPoint x="593" y="1283" as="targetPoint" />
          </mxGeometry>
        </mxCell>
        <mxCell id="503uB3ZOZ9aQn6SOuRmJ-82" value="가격" style="ellipse;whiteSpace=wrap;html=1;align=center;" vertex="1" parent="1">
          <mxGeometry x="470" y="1154" width="100" height="40" as="geometry" />
        </mxCell>
        <mxCell id="503uB3ZOZ9aQn6SOuRmJ-83" value="관리" style="shape=rhombus;perimeter=rhombusPerimeter;whiteSpace=wrap;html=1;align=center;" vertex="1" parent="1">
          <mxGeometry x="673" y="922" width="120" height="60" as="geometry" />
        </mxCell>
        <mxCell id="503uB3ZOZ9aQn6SOuRmJ-84" value="구매" style="shape=rhombus;perimeter=rhombusPerimeter;whiteSpace=wrap;html=1;align=center;" vertex="1" parent="1">
          <mxGeometry x="325" y="1096" width="120" height="60" as="geometry" />
        </mxCell>
        <mxCell id="503uB3ZOZ9aQn6SOuRmJ-85" value="수량" style="ellipse;whiteSpace=wrap;html=1;align=center;" vertex="1" parent="1">
          <mxGeometry x="312" y="1187" width="100" height="40" as="geometry" />
        </mxCell>
        <mxCell id="503uB3ZOZ9aQn6SOuRmJ-86" value="" style="endArrow=none;html=1;rounded=0;fontSize=12;startSize=8;endSize=8;curved=1;entryX=1;entryY=0.5;entryDx=0;entryDy=0;exitX=0;exitY=0.5;exitDx=0;exitDy=0;" edge="1" parent="1" source="503uB3ZOZ9aQn6SOuRmJ-83" target="503uB3ZOZ9aQn6SOuRmJ-50">
          <mxGeometry relative="1" as="geometry">
            <mxPoint x="662" y="915" as="sourcePoint" />
            <mxPoint x="587" y="904" as="targetPoint" />
          </mxGeometry>
        </mxCell>
        <mxCell id="503uB3ZOZ9aQn6SOuRmJ-87" value="N" style="edgeLabel;html=1;align=center;verticalAlign=middle;resizable=0;points=[];fontSize=12;" vertex="1" connectable="0" parent="503uB3ZOZ9aQn6SOuRmJ-86">
          <mxGeometry x="-0.5296" y="2" relative="1" as="geometry">
            <mxPoint x="19" y="15" as="offset" />
          </mxGeometry>
        </mxCell>
        <mxCell id="503uB3ZOZ9aQn6SOuRmJ-88" value="" style="endArrow=none;html=1;rounded=0;fontSize=12;startSize=8;endSize=8;curved=1;entryX=1;entryY=1;entryDx=0;entryDy=0;exitX=0.5;exitY=0;exitDx=0;exitDy=0;" edge="1" parent="1" source="503uB3ZOZ9aQn6SOuRmJ-67" target="503uB3ZOZ9aQn6SOuRmJ-83">
          <mxGeometry relative="1" as="geometry">
            <mxPoint x="761" y="977" as="sourcePoint" />
            <mxPoint x="638" y="934" as="targetPoint" />
          </mxGeometry>
        </mxCell>
        <mxCell id="503uB3ZOZ9aQn6SOuRmJ-89" value="1" style="edgeLabel;html=1;align=center;verticalAlign=middle;resizable=0;points=[];fontSize=12;" vertex="1" connectable="0" parent="503uB3ZOZ9aQn6SOuRmJ-88">
          <mxGeometry x="0.4536" y="-2" relative="1" as="geometry">
            <mxPoint x="11" y="-10" as="offset" />
          </mxGeometry>
        </mxCell>
        <mxCell id="503uB3ZOZ9aQn6SOuRmJ-90" value="구매번호" style="ellipse;whiteSpace=wrap;html=1;align=center;fontStyle=4;" vertex="1" parent="1">
          <mxGeometry x="212" y="1136" width="100" height="40" as="geometry" />
        </mxCell>
        <mxCell id="503uB3ZOZ9aQn6SOuRmJ-91" value="구매일자" style="ellipse;whiteSpace=wrap;html=1;align=center;" vertex="1" parent="1">
          <mxGeometry x="210" y="1075" width="100" height="40" as="geometry" />
        </mxCell>
        <mxCell id="503uB3ZOZ9aQn6SOuRmJ-92" value="" style="endArrow=none;html=1;rounded=0;fontSize=12;startSize=8;endSize=8;curved=1;entryX=0;entryY=0;entryDx=0;entryDy=0;exitX=1;exitY=0.5;exitDx=0;exitDy=0;" edge="1" parent="1" source="503uB3ZOZ9aQn6SOuRmJ-91" target="503uB3ZOZ9aQn6SOuRmJ-84">
          <mxGeometry relative="1" as="geometry">
            <mxPoint x="317" y="1098.5" as="sourcePoint" />
            <mxPoint x="367" y="1073.5" as="targetPoint" />
          </mxGeometry>
        </mxCell>
        <mxCell id="503uB3ZOZ9aQn6SOuRmJ-93" value="" style="endArrow=none;html=1;rounded=0;fontSize=12;startSize=8;endSize=8;curved=1;exitX=1;exitY=0;exitDx=0;exitDy=0;" edge="1" parent="1" source="503uB3ZOZ9aQn6SOuRmJ-90" target="503uB3ZOZ9aQn6SOuRmJ-84">
          <mxGeometry relative="1" as="geometry">
            <mxPoint x="334" y="1099" as="sourcePoint" />
            <mxPoint x="346" y="1130" as="targetPoint" />
          </mxGeometry>
        </mxCell>
        <mxCell id="503uB3ZOZ9aQn6SOuRmJ-94" value="" style="endArrow=none;html=1;rounded=0;fontSize=12;startSize=8;endSize=8;curved=1;exitX=0.373;exitY=0.025;exitDx=0;exitDy=0;exitPerimeter=0;entryX=0.314;entryY=0.822;entryDx=0;entryDy=0;entryPerimeter=0;" edge="1" parent="1" source="503uB3ZOZ9aQn6SOuRmJ-85" target="503uB3ZOZ9aQn6SOuRmJ-84">
          <mxGeometry relative="1" as="geometry">
            <mxPoint x="317" y="1168" as="sourcePoint" />
            <mxPoint x="361" y="1160" as="targetPoint" />
          </mxGeometry>
        </mxCell>
        <mxCell id="503uB3ZOZ9aQn6SOuRmJ-95" value="" style="endArrow=none;html=1;rounded=0;fontSize=12;startSize=8;endSize=8;curved=1;entryX=0.5;entryY=1;entryDx=0;entryDy=0;exitX=1;exitY=0;exitDx=0;exitDy=0;" edge="1" parent="1" source="503uB3ZOZ9aQn6SOuRmJ-84" target="503uB3ZOZ9aQn6SOuRmJ-50">
          <mxGeometry relative="1" as="geometry">
            <mxPoint x="530.5" y="997" as="sourcePoint" />
            <mxPoint x="485.5" y="965" as="targetPoint" />
          </mxGeometry>
        </mxCell>
        <mxCell id="503uB3ZOZ9aQn6SOuRmJ-96" value="N" style="edgeLabel;html=1;align=center;verticalAlign=middle;resizable=0;points=[];fontSize=12;" vertex="1" connectable="0" parent="503uB3ZOZ9aQn6SOuRmJ-95">
          <mxGeometry x="-0.1668" y="3" relative="1" as="geometry">
            <mxPoint x="-14" y="67" as="offset" />
          </mxGeometry>
        </mxCell>
        <mxCell id="503uB3ZOZ9aQn6SOuRmJ-97" value="" style="endArrow=none;html=1;rounded=0;fontSize=12;startSize=8;endSize=8;curved=1;entryX=0.25;entryY=0;entryDx=0;entryDy=0;exitX=0.664;exitY=0.822;exitDx=0;exitDy=0;exitPerimeter=0;" edge="1" parent="1" source="503uB3ZOZ9aQn6SOuRmJ-84" target="503uB3ZOZ9aQn6SOuRmJ-72">
          <mxGeometry relative="1" as="geometry">
            <mxPoint x="445" y="1221" as="sourcePoint" />
            <mxPoint x="533" y="1034" as="targetPoint" />
          </mxGeometry>
        </mxCell>
        <mxCell id="503uB3ZOZ9aQn6SOuRmJ-98" value="M" style="edgeLabel;html=1;align=center;verticalAlign=middle;resizable=0;points=[];fontSize=12;" vertex="1" connectable="0" parent="503uB3ZOZ9aQn6SOuRmJ-97">
          <mxGeometry x="-0.57" y="2" relative="1" as="geometry">
            <mxPoint x="7" y="-12" as="offset" />
          </mxGeometry>
        </mxCell>
      </root>
    </mxGraphModel>
  </diagram>
  <diagram name="페이지-2" id="84c0mecGFESPCuxo9U2l">
    <mxGraphModel dx="1169" dy="550" grid="0" gridSize="10" guides="1" tooltips="1" connect="1" arrows="1" fold="1" page="0" pageScale="1" pageWidth="827" pageHeight="1169" math="0" shadow="0">
      <root>
        <mxCell id="0" />
        <mxCell id="1" parent="0" />
        <mxCell id="YxiXrkUBs9q3n1MtnNgC-1" value="고객" style="swimlane;childLayout=stackLayout;horizontal=1;startSize=50;horizontalStack=0;rounded=1;fontSize=14;fontStyle=0;strokeWidth=2;resizeParent=0;resizeLast=1;shadow=0;dashed=0;align=center;arcSize=4;whiteSpace=wrap;html=1;" vertex="1" parent="1">
          <mxGeometry x="-148" y="97" width="160" height="229" as="geometry" />
        </mxCell>
        <mxCell id="YxiXrkUBs9q3n1MtnNgC-2" value="고객코드(PK)&lt;div&gt;고객이름&lt;/div&gt;&lt;div&gt;전화번호&lt;/div&gt;&lt;div&gt;이메일&lt;/div&gt;&lt;div&gt;기본주소&lt;/div&gt;&lt;div&gt;상세주소&lt;/div&gt;&lt;div&gt;가입일&lt;/div&gt;&lt;div&gt;지역코드(FK)&lt;/div&gt;" style="align=left;strokeColor=none;fillColor=none;spacingLeft=4;spacingRight=4;fontSize=12;verticalAlign=top;resizable=0;rotatable=0;part=1;html=1;whiteSpace=wrap;" vertex="1" parent="YxiXrkUBs9q3n1MtnNgC-1">
          <mxGeometry y="50" width="160" height="179" as="geometry" />
        </mxCell>
        <mxCell id="YxiXrkUBs9q3n1MtnNgC-3" value="고객" style="shape=table;startSize=30;container=1;collapsible=1;childLayout=tableLayout;fixedRows=1;rowLines=0;fontStyle=1;align=center;resizeLast=1;html=1;whiteSpace=wrap;" vertex="1" parent="1">
          <mxGeometry x="-285" y="531.63" width="180" height="218.75" as="geometry" />
        </mxCell>
        <mxCell id="YxiXrkUBs9q3n1MtnNgC-4" value="" style="shape=tableRow;horizontal=0;startSize=0;swimlaneHead=0;swimlaneBody=0;fillColor=none;collapsible=0;dropTarget=0;points=[[0,0.5],[1,0.5]];portConstraint=eastwest;top=0;left=0;right=0;bottom=0;html=1;" vertex="1" parent="YxiXrkUBs9q3n1MtnNgC-3">
          <mxGeometry y="30" width="180" height="30" as="geometry" />
        </mxCell>
        <mxCell id="YxiXrkUBs9q3n1MtnNgC-5" value="PK" style="shape=partialRectangle;connectable=0;fillColor=none;top=0;left=0;bottom=0;right=0;fontStyle=1;overflow=hidden;html=1;whiteSpace=wrap;" vertex="1" parent="YxiXrkUBs9q3n1MtnNgC-4">
          <mxGeometry width="60" height="30" as="geometry">
            <mxRectangle width="60" height="30" as="alternateBounds" />
          </mxGeometry>
        </mxCell>
        <mxCell id="YxiXrkUBs9q3n1MtnNgC-6" value="고객코드" style="shape=partialRectangle;connectable=0;fillColor=none;top=0;left=0;bottom=0;right=0;align=left;spacingLeft=6;fontStyle=5;overflow=hidden;html=1;whiteSpace=wrap;" vertex="1" parent="YxiXrkUBs9q3n1MtnNgC-4">
          <mxGeometry x="60" width="120" height="30" as="geometry">
            <mxRectangle width="120" height="30" as="alternateBounds" />
          </mxGeometry>
        </mxCell>
        <mxCell id="YxiXrkUBs9q3n1MtnNgC-7" value="" style="shape=tableRow;horizontal=0;startSize=0;swimlaneHead=0;swimlaneBody=0;fillColor=none;collapsible=0;dropTarget=0;points=[[0,0.5],[1,0.5]];portConstraint=eastwest;top=0;left=0;right=0;bottom=1;html=1;" vertex="1" parent="YxiXrkUBs9q3n1MtnNgC-3">
          <mxGeometry y="60" width="180" height="20" as="geometry" />
        </mxCell>
        <mxCell id="YxiXrkUBs9q3n1MtnNgC-8" value="FK" style="shape=partialRectangle;connectable=0;fillColor=none;top=0;left=0;bottom=0;right=0;fontStyle=1;overflow=hidden;html=1;whiteSpace=wrap;" vertex="1" parent="YxiXrkUBs9q3n1MtnNgC-7">
          <mxGeometry width="60" height="20" as="geometry">
            <mxRectangle width="60" height="20" as="alternateBounds" />
          </mxGeometry>
        </mxCell>
        <mxCell id="YxiXrkUBs9q3n1MtnNgC-9" value="지역코드" style="shape=partialRectangle;connectable=0;fillColor=none;top=0;left=0;bottom=0;right=0;align=left;spacingLeft=6;fontStyle=5;overflow=hidden;html=1;whiteSpace=wrap;" vertex="1" parent="YxiXrkUBs9q3n1MtnNgC-7">
          <mxGeometry x="60" width="120" height="20" as="geometry">
            <mxRectangle width="120" height="20" as="alternateBounds" />
          </mxGeometry>
        </mxCell>
        <mxCell id="YxiXrkUBs9q3n1MtnNgC-10" value="" style="shape=tableRow;horizontal=0;startSize=0;swimlaneHead=0;swimlaneBody=0;fillColor=none;collapsible=0;dropTarget=0;points=[[0,0.5],[1,0.5]];portConstraint=eastwest;top=0;left=0;right=0;bottom=0;html=1;" vertex="1" parent="YxiXrkUBs9q3n1MtnNgC-3">
          <mxGeometry y="80" width="180" height="23" as="geometry" />
        </mxCell>
        <mxCell id="YxiXrkUBs9q3n1MtnNgC-11" value="" style="shape=partialRectangle;connectable=0;fillColor=none;top=0;left=0;bottom=0;right=0;editable=1;overflow=hidden;html=1;whiteSpace=wrap;" vertex="1" parent="YxiXrkUBs9q3n1MtnNgC-10">
          <mxGeometry width="60" height="23" as="geometry">
            <mxRectangle width="60" height="23" as="alternateBounds" />
          </mxGeometry>
        </mxCell>
        <mxCell id="YxiXrkUBs9q3n1MtnNgC-12" value="고객이름" style="shape=partialRectangle;connectable=0;fillColor=none;top=0;left=0;bottom=0;right=0;align=left;spacingLeft=6;overflow=hidden;html=1;whiteSpace=wrap;" vertex="1" parent="YxiXrkUBs9q3n1MtnNgC-10">
          <mxGeometry x="60" width="120" height="23" as="geometry">
            <mxRectangle width="120" height="23" as="alternateBounds" />
          </mxGeometry>
        </mxCell>
        <mxCell id="YxiXrkUBs9q3n1MtnNgC-18" value="" style="shape=tableRow;horizontal=0;startSize=0;swimlaneHead=0;swimlaneBody=0;fillColor=none;collapsible=0;dropTarget=0;points=[[0,0.5],[1,0.5]];portConstraint=eastwest;top=0;left=0;right=0;bottom=0;html=1;" vertex="1" parent="YxiXrkUBs9q3n1MtnNgC-3">
          <mxGeometry y="103" width="180" height="23" as="geometry" />
        </mxCell>
        <mxCell id="YxiXrkUBs9q3n1MtnNgC-19" value="" style="shape=partialRectangle;connectable=0;fillColor=none;top=0;left=0;bottom=0;right=0;editable=1;overflow=hidden;html=1;whiteSpace=wrap;" vertex="1" parent="YxiXrkUBs9q3n1MtnNgC-18">
          <mxGeometry width="60" height="23" as="geometry">
            <mxRectangle width="60" height="23" as="alternateBounds" />
          </mxGeometry>
        </mxCell>
        <mxCell id="YxiXrkUBs9q3n1MtnNgC-20" value="전화번호" style="shape=partialRectangle;connectable=0;fillColor=none;top=0;left=0;bottom=0;right=0;align=left;spacingLeft=6;overflow=hidden;html=1;whiteSpace=wrap;" vertex="1" parent="YxiXrkUBs9q3n1MtnNgC-18">
          <mxGeometry x="60" width="120" height="23" as="geometry">
            <mxRectangle width="120" height="23" as="alternateBounds" />
          </mxGeometry>
        </mxCell>
        <mxCell id="YxiXrkUBs9q3n1MtnNgC-21" value="" style="shape=tableRow;horizontal=0;startSize=0;swimlaneHead=0;swimlaneBody=0;fillColor=none;collapsible=0;dropTarget=0;points=[[0,0.5],[1,0.5]];portConstraint=eastwest;top=0;left=0;right=0;bottom=0;html=1;" vertex="1" parent="YxiXrkUBs9q3n1MtnNgC-3">
          <mxGeometry y="126" width="180" height="23" as="geometry" />
        </mxCell>
        <mxCell id="YxiXrkUBs9q3n1MtnNgC-22" value="" style="shape=partialRectangle;connectable=0;fillColor=none;top=0;left=0;bottom=0;right=0;editable=1;overflow=hidden;html=1;whiteSpace=wrap;" vertex="1" parent="YxiXrkUBs9q3n1MtnNgC-21">
          <mxGeometry width="60" height="23" as="geometry">
            <mxRectangle width="60" height="23" as="alternateBounds" />
          </mxGeometry>
        </mxCell>
        <mxCell id="YxiXrkUBs9q3n1MtnNgC-23" value="이메일" style="shape=partialRectangle;connectable=0;fillColor=none;top=0;left=0;bottom=0;right=0;align=left;spacingLeft=6;overflow=hidden;html=1;whiteSpace=wrap;" vertex="1" parent="YxiXrkUBs9q3n1MtnNgC-21">
          <mxGeometry x="60" width="120" height="23" as="geometry">
            <mxRectangle width="120" height="23" as="alternateBounds" />
          </mxGeometry>
        </mxCell>
        <mxCell id="YxiXrkUBs9q3n1MtnNgC-24" value="" style="shape=tableRow;horizontal=0;startSize=0;swimlaneHead=0;swimlaneBody=0;fillColor=none;collapsible=0;dropTarget=0;points=[[0,0.5],[1,0.5]];portConstraint=eastwest;top=0;left=0;right=0;bottom=0;html=1;" vertex="1" parent="YxiXrkUBs9q3n1MtnNgC-3">
          <mxGeometry y="149" width="180" height="23" as="geometry" />
        </mxCell>
        <mxCell id="YxiXrkUBs9q3n1MtnNgC-25" value="" style="shape=partialRectangle;connectable=0;fillColor=none;top=0;left=0;bottom=0;right=0;editable=1;overflow=hidden;html=1;whiteSpace=wrap;" vertex="1" parent="YxiXrkUBs9q3n1MtnNgC-24">
          <mxGeometry width="60" height="23" as="geometry">
            <mxRectangle width="60" height="23" as="alternateBounds" />
          </mxGeometry>
        </mxCell>
        <mxCell id="YxiXrkUBs9q3n1MtnNgC-26" value="기본주소" style="shape=partialRectangle;connectable=0;fillColor=none;top=0;left=0;bottom=0;right=0;align=left;spacingLeft=6;overflow=hidden;html=1;whiteSpace=wrap;" vertex="1" parent="YxiXrkUBs9q3n1MtnNgC-24">
          <mxGeometry x="60" width="120" height="23" as="geometry">
            <mxRectangle width="120" height="23" as="alternateBounds" />
          </mxGeometry>
        </mxCell>
        <mxCell id="YxiXrkUBs9q3n1MtnNgC-27" value="" style="shape=tableRow;horizontal=0;startSize=0;swimlaneHead=0;swimlaneBody=0;fillColor=none;collapsible=0;dropTarget=0;points=[[0,0.5],[1,0.5]];portConstraint=eastwest;top=0;left=0;right=0;bottom=0;html=1;" vertex="1" parent="YxiXrkUBs9q3n1MtnNgC-3">
          <mxGeometry y="172" width="180" height="23" as="geometry" />
        </mxCell>
        <mxCell id="YxiXrkUBs9q3n1MtnNgC-28" value="" style="shape=partialRectangle;connectable=0;fillColor=none;top=0;left=0;bottom=0;right=0;editable=1;overflow=hidden;html=1;whiteSpace=wrap;" vertex="1" parent="YxiXrkUBs9q3n1MtnNgC-27">
          <mxGeometry width="60" height="23" as="geometry">
            <mxRectangle width="60" height="23" as="alternateBounds" />
          </mxGeometry>
        </mxCell>
        <mxCell id="YxiXrkUBs9q3n1MtnNgC-29" value="상세주소" style="shape=partialRectangle;connectable=0;fillColor=none;top=0;left=0;bottom=0;right=0;align=left;spacingLeft=6;overflow=hidden;html=1;whiteSpace=wrap;" vertex="1" parent="YxiXrkUBs9q3n1MtnNgC-27">
          <mxGeometry x="60" width="120" height="23" as="geometry">
            <mxRectangle width="120" height="23" as="alternateBounds" />
          </mxGeometry>
        </mxCell>
        <mxCell id="YxiXrkUBs9q3n1MtnNgC-30" value="" style="shape=tableRow;horizontal=0;startSize=0;swimlaneHead=0;swimlaneBody=0;fillColor=none;collapsible=0;dropTarget=0;points=[[0,0.5],[1,0.5]];portConstraint=eastwest;top=0;left=0;right=0;bottom=0;html=1;" vertex="1" parent="YxiXrkUBs9q3n1MtnNgC-3">
          <mxGeometry y="195" width="180" height="23" as="geometry" />
        </mxCell>
        <mxCell id="YxiXrkUBs9q3n1MtnNgC-31" value="" style="shape=partialRectangle;connectable=0;fillColor=none;top=0;left=0;bottom=0;right=0;editable=1;overflow=hidden;html=1;whiteSpace=wrap;" vertex="1" parent="YxiXrkUBs9q3n1MtnNgC-30">
          <mxGeometry width="60" height="23" as="geometry">
            <mxRectangle width="60" height="23" as="alternateBounds" />
          </mxGeometry>
        </mxCell>
        <mxCell id="YxiXrkUBs9q3n1MtnNgC-32" value="가입일" style="shape=partialRectangle;connectable=0;fillColor=none;top=0;left=0;bottom=0;right=0;align=left;spacingLeft=6;overflow=hidden;html=1;whiteSpace=wrap;" vertex="1" parent="YxiXrkUBs9q3n1MtnNgC-30">
          <mxGeometry x="60" width="120" height="23" as="geometry">
            <mxRectangle width="120" height="23" as="alternateBounds" />
          </mxGeometry>
        </mxCell>
        <mxCell id="YxiXrkUBs9q3n1MtnNgC-34" value="지역" style="swimlane;childLayout=stackLayout;horizontal=1;startSize=50;horizontalStack=0;rounded=1;fontSize=14;fontStyle=0;strokeWidth=2;resizeParent=0;resizeLast=1;shadow=0;dashed=0;align=center;arcSize=4;whiteSpace=wrap;html=1;" vertex="1" parent="1">
          <mxGeometry x="55" y="322" width="160" height="229" as="geometry" />
        </mxCell>
        <mxCell id="YxiXrkUBs9q3n1MtnNgC-35" value="지역코드(PK)&lt;div&gt;지역명&lt;/div&gt;" style="align=left;strokeColor=none;fillColor=none;spacingLeft=4;spacingRight=4;fontSize=12;verticalAlign=top;resizable=0;rotatable=0;part=1;html=1;whiteSpace=wrap;" vertex="1" parent="YxiXrkUBs9q3n1MtnNgC-34">
          <mxGeometry y="50" width="160" height="179" as="geometry" />
        </mxCell>
        <mxCell id="YxiXrkUBs9q3n1MtnNgC-36" value="구매" style="swimlane;childLayout=stackLayout;horizontal=1;startSize=50;horizontalStack=0;rounded=1;fontSize=14;fontStyle=0;strokeWidth=2;resizeParent=0;resizeLast=1;shadow=0;dashed=0;align=center;arcSize=4;whiteSpace=wrap;html=1;" vertex="1" parent="1">
          <mxGeometry x="79" y="62" width="160" height="229" as="geometry" />
        </mxCell>
        <mxCell id="YxiXrkUBs9q3n1MtnNgC-37" value="구매번호(PK)&lt;div&gt;고객코드(FK)&lt;/div&gt;&lt;div&gt;제품번호(FK)&lt;/div&gt;&lt;div&gt;수량&lt;/div&gt;&lt;div&gt;구매일자&lt;br&gt;&lt;/div&gt;" style="align=left;strokeColor=none;fillColor=none;spacingLeft=4;spacingRight=4;fontSize=12;verticalAlign=top;resizable=0;rotatable=0;part=1;html=1;whiteSpace=wrap;" vertex="1" parent="YxiXrkUBs9q3n1MtnNgC-36">
          <mxGeometry y="50" width="160" height="179" as="geometry" />
        </mxCell>
        <mxCell id="YxiXrkUBs9q3n1MtnNgC-38" value="제품" style="swimlane;childLayout=stackLayout;horizontal=1;startSize=50;horizontalStack=0;rounded=1;fontSize=14;fontStyle=0;strokeWidth=2;resizeParent=0;resizeLast=1;shadow=0;dashed=0;align=center;arcSize=4;whiteSpace=wrap;html=1;" vertex="1" parent="1">
          <mxGeometry x="292" y="93" width="160" height="229" as="geometry" />
        </mxCell>
        <mxCell id="YxiXrkUBs9q3n1MtnNgC-39" value="제품코드(PK)&lt;div&gt;제품명&lt;/div&gt;&lt;div&gt;제품구분&lt;/div&gt;&lt;div&gt;가격&lt;/div&gt;" style="align=left;strokeColor=none;fillColor=none;spacingLeft=4;spacingRight=4;fontSize=12;verticalAlign=top;resizable=0;rotatable=0;part=1;html=1;whiteSpace=wrap;" vertex="1" parent="YxiXrkUBs9q3n1MtnNgC-38">
          <mxGeometry y="50" width="160" height="179" as="geometry" />
        </mxCell>
        <mxCell id="YxiXrkUBs9q3n1MtnNgC-41" value="구매" style="shape=table;startSize=22;container=1;collapsible=1;childLayout=tableLayout;fixedRows=1;rowLines=0;fontStyle=1;align=center;resizeLast=1;html=1;whiteSpace=wrap;" vertex="1" parent="1">
          <mxGeometry x="-9" y="572" width="180" height="243" as="geometry" />
        </mxCell>
        <mxCell id="YxiXrkUBs9q3n1MtnNgC-42" value="" style="shape=tableRow;horizontal=0;startSize=0;swimlaneHead=0;swimlaneBody=0;fillColor=none;collapsible=0;dropTarget=0;points=[[0,0.5],[1,0.5]];portConstraint=eastwest;top=0;left=0;right=0;bottom=0;html=1;" vertex="1" parent="YxiXrkUBs9q3n1MtnNgC-41">
          <mxGeometry y="22" width="180" height="24" as="geometry" />
        </mxCell>
        <mxCell id="YxiXrkUBs9q3n1MtnNgC-43" value="PK" style="shape=partialRectangle;connectable=0;fillColor=none;top=0;left=0;bottom=0;right=0;fontStyle=1;overflow=hidden;html=1;whiteSpace=wrap;" vertex="1" parent="YxiXrkUBs9q3n1MtnNgC-42">
          <mxGeometry width="60" height="24" as="geometry">
            <mxRectangle width="60" height="24" as="alternateBounds" />
          </mxGeometry>
        </mxCell>
        <mxCell id="YxiXrkUBs9q3n1MtnNgC-44" value="구매번호" style="shape=partialRectangle;connectable=0;fillColor=none;top=0;left=0;bottom=0;right=0;align=left;spacingLeft=6;fontStyle=5;overflow=hidden;html=1;whiteSpace=wrap;" vertex="1" parent="YxiXrkUBs9q3n1MtnNgC-42">
          <mxGeometry x="60" width="120" height="24" as="geometry">
            <mxRectangle width="120" height="24" as="alternateBounds" />
          </mxGeometry>
        </mxCell>
        <mxCell id="YxiXrkUBs9q3n1MtnNgC-45" value="" style="shape=tableRow;horizontal=0;startSize=0;swimlaneHead=0;swimlaneBody=0;fillColor=none;collapsible=0;dropTarget=0;points=[[0,0.5],[1,0.5]];portConstraint=eastwest;top=0;left=0;right=0;bottom=1;html=1;" vertex="1" parent="YxiXrkUBs9q3n1MtnNgC-41">
          <mxGeometry y="46" width="180" height="72" as="geometry" />
        </mxCell>
        <mxCell id="YxiXrkUBs9q3n1MtnNgC-46" value="FK" style="shape=partialRectangle;connectable=0;fillColor=none;top=0;left=0;bottom=0;right=0;fontStyle=1;overflow=hidden;html=1;whiteSpace=wrap;" vertex="1" parent="YxiXrkUBs9q3n1MtnNgC-45">
          <mxGeometry width="60" height="72" as="geometry">
            <mxRectangle width="60" height="72" as="alternateBounds" />
          </mxGeometry>
        </mxCell>
        <mxCell id="YxiXrkUBs9q3n1MtnNgC-47" value="고객코드" style="shape=partialRectangle;connectable=0;fillColor=none;top=0;left=0;bottom=0;right=0;align=left;spacingLeft=6;fontStyle=5;overflow=hidden;html=1;whiteSpace=wrap;" vertex="1" parent="YxiXrkUBs9q3n1MtnNgC-45">
          <mxGeometry x="60" width="120" height="72" as="geometry">
            <mxRectangle width="120" height="72" as="alternateBounds" />
          </mxGeometry>
        </mxCell>
        <mxCell id="YxiXrkUBs9q3n1MtnNgC-48" value="" style="shape=tableRow;horizontal=0;startSize=0;swimlaneHead=0;swimlaneBody=0;fillColor=none;collapsible=0;dropTarget=0;points=[[0,0.5],[1,0.5]];portConstraint=eastwest;top=0;left=0;right=0;bottom=0;html=1;" vertex="1" parent="YxiXrkUBs9q3n1MtnNgC-41">
          <mxGeometry y="118" width="180" height="23" as="geometry" />
        </mxCell>
        <mxCell id="YxiXrkUBs9q3n1MtnNgC-49" value="" style="shape=partialRectangle;connectable=0;fillColor=none;top=0;left=0;bottom=0;right=0;editable=1;overflow=hidden;html=1;whiteSpace=wrap;" vertex="1" parent="YxiXrkUBs9q3n1MtnNgC-48">
          <mxGeometry width="60" height="23" as="geometry">
            <mxRectangle width="60" height="23" as="alternateBounds" />
          </mxGeometry>
        </mxCell>
        <mxCell id="YxiXrkUBs9q3n1MtnNgC-50" value="수량" style="shape=partialRectangle;connectable=0;fillColor=none;top=0;left=0;bottom=0;right=0;align=left;spacingLeft=6;overflow=hidden;html=1;whiteSpace=wrap;" vertex="1" parent="YxiXrkUBs9q3n1MtnNgC-48">
          <mxGeometry x="60" width="120" height="23" as="geometry">
            <mxRectangle width="120" height="23" as="alternateBounds" />
          </mxGeometry>
        </mxCell>
        <mxCell id="YxiXrkUBs9q3n1MtnNgC-51" value="" style="shape=tableRow;horizontal=0;startSize=0;swimlaneHead=0;swimlaneBody=0;fillColor=none;collapsible=0;dropTarget=0;points=[[0,0.5],[1,0.5]];portConstraint=eastwest;top=0;left=0;right=0;bottom=0;html=1;" vertex="1" parent="YxiXrkUBs9q3n1MtnNgC-41">
          <mxGeometry y="141" width="180" height="20" as="geometry" />
        </mxCell>
        <mxCell id="YxiXrkUBs9q3n1MtnNgC-52" value="" style="shape=partialRectangle;connectable=0;fillColor=none;top=0;left=0;bottom=0;right=0;editable=1;overflow=hidden;html=1;whiteSpace=wrap;" vertex="1" parent="YxiXrkUBs9q3n1MtnNgC-51">
          <mxGeometry width="60" height="20" as="geometry">
            <mxRectangle width="60" height="20" as="alternateBounds" />
          </mxGeometry>
        </mxCell>
        <mxCell id="YxiXrkUBs9q3n1MtnNgC-53" value="구매일자" style="shape=partialRectangle;connectable=0;fillColor=none;top=0;left=0;bottom=0;right=0;align=left;spacingLeft=6;overflow=hidden;html=1;whiteSpace=wrap;" vertex="1" parent="YxiXrkUBs9q3n1MtnNgC-51">
          <mxGeometry x="60" width="120" height="20" as="geometry">
            <mxRectangle width="120" height="20" as="alternateBounds" />
          </mxGeometry>
        </mxCell>
        <mxCell id="YxiXrkUBs9q3n1MtnNgC-111" value="" style="shape=tableRow;horizontal=0;startSize=0;swimlaneHead=0;swimlaneBody=0;fillColor=none;collapsible=0;dropTarget=0;points=[[0,0.5],[1,0.5]];portConstraint=eastwest;top=0;left=0;right=0;bottom=1;html=1;movable=1;resizable=1;rotatable=1;deletable=1;editable=1;locked=0;connectable=1;" vertex="1" parent="YxiXrkUBs9q3n1MtnNgC-41">
          <mxGeometry y="161" width="180" height="56" as="geometry" />
        </mxCell>
        <mxCell id="YxiXrkUBs9q3n1MtnNgC-112" value="FK" style="shape=partialRectangle;connectable=0;fillColor=none;top=0;left=0;bottom=0;right=0;fontStyle=1;overflow=hidden;html=1;whiteSpace=wrap;" vertex="1" parent="YxiXrkUBs9q3n1MtnNgC-111">
          <mxGeometry width="60" height="56" as="geometry">
            <mxRectangle width="60" height="56" as="alternateBounds" />
          </mxGeometry>
        </mxCell>
        <mxCell id="YxiXrkUBs9q3n1MtnNgC-113" value="제품코드" style="shape=partialRectangle;connectable=0;fillColor=none;top=0;left=0;bottom=0;right=0;align=left;spacingLeft=6;fontStyle=5;overflow=hidden;html=1;whiteSpace=wrap;" vertex="1" parent="YxiXrkUBs9q3n1MtnNgC-111">
          <mxGeometry x="60" width="120" height="56" as="geometry">
            <mxRectangle width="120" height="56" as="alternateBounds" />
          </mxGeometry>
        </mxCell>
        <mxCell id="YxiXrkUBs9q3n1MtnNgC-66" value="제품" style="shape=table;startSize=22;container=1;collapsible=1;childLayout=tableLayout;fixedRows=1;rowLines=0;fontStyle=1;align=center;resizeLast=1;html=1;whiteSpace=wrap;" vertex="1" parent="1">
          <mxGeometry x="230" y="572" width="180" height="138" as="geometry" />
        </mxCell>
        <mxCell id="YxiXrkUBs9q3n1MtnNgC-67" value="" style="shape=tableRow;horizontal=0;startSize=0;swimlaneHead=0;swimlaneBody=0;fillColor=none;collapsible=0;dropTarget=0;points=[[0,0.5],[1,0.5]];portConstraint=eastwest;top=0;left=0;right=0;bottom=0;html=1;" vertex="1" parent="YxiXrkUBs9q3n1MtnNgC-66">
          <mxGeometry y="22" width="180" height="30" as="geometry" />
        </mxCell>
        <mxCell id="YxiXrkUBs9q3n1MtnNgC-68" value="PK" style="shape=partialRectangle;connectable=0;fillColor=none;top=0;left=0;bottom=0;right=0;fontStyle=1;overflow=hidden;html=1;whiteSpace=wrap;" vertex="1" parent="YxiXrkUBs9q3n1MtnNgC-67">
          <mxGeometry width="60" height="30" as="geometry">
            <mxRectangle width="60" height="30" as="alternateBounds" />
          </mxGeometry>
        </mxCell>
        <mxCell id="YxiXrkUBs9q3n1MtnNgC-69" value="제품코드" style="shape=partialRectangle;connectable=0;fillColor=none;top=0;left=0;bottom=0;right=0;align=left;spacingLeft=6;fontStyle=5;overflow=hidden;html=1;whiteSpace=wrap;" vertex="1" parent="YxiXrkUBs9q3n1MtnNgC-67">
          <mxGeometry x="60" width="120" height="30" as="geometry">
            <mxRectangle width="120" height="30" as="alternateBounds" />
          </mxGeometry>
        </mxCell>
        <mxCell id="YxiXrkUBs9q3n1MtnNgC-70" value="" style="shape=tableRow;horizontal=0;startSize=0;swimlaneHead=0;swimlaneBody=0;fillColor=none;collapsible=0;dropTarget=0;points=[[0,0.5],[1,0.5]];portConstraint=eastwest;top=0;left=0;right=0;bottom=1;html=1;" vertex="1" parent="YxiXrkUBs9q3n1MtnNgC-66">
          <mxGeometry y="52" width="180" height="20" as="geometry" />
        </mxCell>
        <mxCell id="YxiXrkUBs9q3n1MtnNgC-71" value="" style="shape=partialRectangle;connectable=0;fillColor=none;top=0;left=0;bottom=0;right=0;fontStyle=1;overflow=hidden;html=1;whiteSpace=wrap;" vertex="1" parent="YxiXrkUBs9q3n1MtnNgC-70">
          <mxGeometry width="60" height="20" as="geometry">
            <mxRectangle width="60" height="20" as="alternateBounds" />
          </mxGeometry>
        </mxCell>
        <mxCell id="YxiXrkUBs9q3n1MtnNgC-72" value="" style="shape=partialRectangle;connectable=0;fillColor=none;top=0;left=0;bottom=0;right=0;align=left;spacingLeft=6;fontStyle=5;overflow=hidden;html=1;whiteSpace=wrap;" vertex="1" parent="YxiXrkUBs9q3n1MtnNgC-70">
          <mxGeometry x="60" width="120" height="20" as="geometry">
            <mxRectangle width="120" height="20" as="alternateBounds" />
          </mxGeometry>
        </mxCell>
        <mxCell id="YxiXrkUBs9q3n1MtnNgC-73" value="" style="shape=tableRow;horizontal=0;startSize=0;swimlaneHead=0;swimlaneBody=0;fillColor=none;collapsible=0;dropTarget=0;points=[[0,0.5],[1,0.5]];portConstraint=eastwest;top=0;left=0;right=0;bottom=0;html=1;" vertex="1" parent="YxiXrkUBs9q3n1MtnNgC-66">
          <mxGeometry y="72" width="180" height="23" as="geometry" />
        </mxCell>
        <mxCell id="YxiXrkUBs9q3n1MtnNgC-74" value="" style="shape=partialRectangle;connectable=0;fillColor=none;top=0;left=0;bottom=0;right=0;editable=1;overflow=hidden;html=1;whiteSpace=wrap;" vertex="1" parent="YxiXrkUBs9q3n1MtnNgC-73">
          <mxGeometry width="60" height="23" as="geometry">
            <mxRectangle width="60" height="23" as="alternateBounds" />
          </mxGeometry>
        </mxCell>
        <mxCell id="YxiXrkUBs9q3n1MtnNgC-75" value="제품명" style="shape=partialRectangle;connectable=0;fillColor=none;top=0;left=0;bottom=0;right=0;align=left;spacingLeft=6;overflow=hidden;html=1;whiteSpace=wrap;" vertex="1" parent="YxiXrkUBs9q3n1MtnNgC-73">
          <mxGeometry x="60" width="120" height="23" as="geometry">
            <mxRectangle width="120" height="23" as="alternateBounds" />
          </mxGeometry>
        </mxCell>
        <mxCell id="YxiXrkUBs9q3n1MtnNgC-76" value="" style="shape=tableRow;horizontal=0;startSize=0;swimlaneHead=0;swimlaneBody=0;fillColor=none;collapsible=0;dropTarget=0;points=[[0,0.5],[1,0.5]];portConstraint=eastwest;top=0;left=0;right=0;bottom=0;html=1;" vertex="1" parent="YxiXrkUBs9q3n1MtnNgC-66">
          <mxGeometry y="95" width="180" height="20" as="geometry" />
        </mxCell>
        <mxCell id="YxiXrkUBs9q3n1MtnNgC-77" value="" style="shape=partialRectangle;connectable=0;fillColor=none;top=0;left=0;bottom=0;right=0;editable=1;overflow=hidden;html=1;whiteSpace=wrap;" vertex="1" parent="YxiXrkUBs9q3n1MtnNgC-76">
          <mxGeometry width="60" height="20" as="geometry">
            <mxRectangle width="60" height="20" as="alternateBounds" />
          </mxGeometry>
        </mxCell>
        <mxCell id="YxiXrkUBs9q3n1MtnNgC-78" value="제품구분" style="shape=partialRectangle;connectable=0;fillColor=none;top=0;left=0;bottom=0;right=0;align=left;spacingLeft=6;overflow=hidden;html=1;whiteSpace=wrap;" vertex="1" parent="YxiXrkUBs9q3n1MtnNgC-76">
          <mxGeometry x="60" width="120" height="20" as="geometry">
            <mxRectangle width="120" height="20" as="alternateBounds" />
          </mxGeometry>
        </mxCell>
        <mxCell id="YxiXrkUBs9q3n1MtnNgC-79" value="" style="shape=tableRow;horizontal=0;startSize=0;swimlaneHead=0;swimlaneBody=0;fillColor=none;collapsible=0;dropTarget=0;points=[[0,0.5],[1,0.5]];portConstraint=eastwest;top=0;left=0;right=0;bottom=0;html=1;" vertex="1" parent="YxiXrkUBs9q3n1MtnNgC-66">
          <mxGeometry y="115" width="180" height="23" as="geometry" />
        </mxCell>
        <mxCell id="YxiXrkUBs9q3n1MtnNgC-80" value="" style="shape=partialRectangle;connectable=0;fillColor=none;top=0;left=0;bottom=0;right=0;editable=1;overflow=hidden;html=1;whiteSpace=wrap;" vertex="1" parent="YxiXrkUBs9q3n1MtnNgC-79">
          <mxGeometry width="60" height="23" as="geometry">
            <mxRectangle width="60" height="23" as="alternateBounds" />
          </mxGeometry>
        </mxCell>
        <mxCell id="YxiXrkUBs9q3n1MtnNgC-81" value="가격" style="shape=partialRectangle;connectable=0;fillColor=none;top=0;left=0;bottom=0;right=0;align=left;spacingLeft=6;overflow=hidden;html=1;whiteSpace=wrap;" vertex="1" parent="YxiXrkUBs9q3n1MtnNgC-79">
          <mxGeometry x="60" width="120" height="23" as="geometry">
            <mxRectangle width="120" height="23" as="alternateBounds" />
          </mxGeometry>
        </mxCell>
        <mxCell id="YxiXrkUBs9q3n1MtnNgC-82" value="지역" style="shape=table;startSize=22;container=1;collapsible=1;childLayout=tableLayout;fixedRows=1;rowLines=0;fontStyle=1;align=center;resizeLast=1;html=1;whiteSpace=wrap;" vertex="1" parent="1">
          <mxGeometry y="884" width="180" height="95" as="geometry" />
        </mxCell>
        <mxCell id="YxiXrkUBs9q3n1MtnNgC-83" value="" style="shape=tableRow;horizontal=0;startSize=0;swimlaneHead=0;swimlaneBody=0;fillColor=none;collapsible=0;dropTarget=0;points=[[0,0.5],[1,0.5]];portConstraint=eastwest;top=0;left=0;right=0;bottom=0;html=1;" vertex="1" parent="YxiXrkUBs9q3n1MtnNgC-82">
          <mxGeometry y="22" width="180" height="30" as="geometry" />
        </mxCell>
        <mxCell id="YxiXrkUBs9q3n1MtnNgC-84" value="PK" style="shape=partialRectangle;connectable=0;fillColor=none;top=0;left=0;bottom=0;right=0;fontStyle=1;overflow=hidden;html=1;whiteSpace=wrap;" vertex="1" parent="YxiXrkUBs9q3n1MtnNgC-83">
          <mxGeometry width="60" height="30" as="geometry">
            <mxRectangle width="60" height="30" as="alternateBounds" />
          </mxGeometry>
        </mxCell>
        <mxCell id="YxiXrkUBs9q3n1MtnNgC-85" value="지역코드" style="shape=partialRectangle;connectable=0;fillColor=none;top=0;left=0;bottom=0;right=0;align=left;spacingLeft=6;fontStyle=5;overflow=hidden;html=1;whiteSpace=wrap;" vertex="1" parent="YxiXrkUBs9q3n1MtnNgC-83">
          <mxGeometry x="60" width="120" height="30" as="geometry">
            <mxRectangle width="120" height="30" as="alternateBounds" />
          </mxGeometry>
        </mxCell>
        <mxCell id="YxiXrkUBs9q3n1MtnNgC-97" value="" style="shape=tableRow;horizontal=0;startSize=0;swimlaneHead=0;swimlaneBody=0;fillColor=none;collapsible=0;dropTarget=0;points=[[0,0.5],[1,0.5]];portConstraint=eastwest;top=0;left=0;right=0;bottom=1;html=1;" vertex="1" parent="YxiXrkUBs9q3n1MtnNgC-82">
          <mxGeometry y="52" width="180" height="20" as="geometry" />
        </mxCell>
        <mxCell id="YxiXrkUBs9q3n1MtnNgC-98" value="" style="shape=partialRectangle;connectable=0;fillColor=none;top=0;left=0;bottom=0;right=0;fontStyle=1;overflow=hidden;html=1;whiteSpace=wrap;" vertex="1" parent="YxiXrkUBs9q3n1MtnNgC-97">
          <mxGeometry width="60" height="20" as="geometry">
            <mxRectangle width="60" height="20" as="alternateBounds" />
          </mxGeometry>
        </mxCell>
        <mxCell id="YxiXrkUBs9q3n1MtnNgC-99" value="" style="shape=partialRectangle;connectable=0;fillColor=none;top=0;left=0;bottom=0;right=0;align=left;spacingLeft=6;fontStyle=5;overflow=hidden;html=1;whiteSpace=wrap;" vertex="1" parent="YxiXrkUBs9q3n1MtnNgC-97">
          <mxGeometry x="60" width="120" height="20" as="geometry">
            <mxRectangle width="120" height="20" as="alternateBounds" />
          </mxGeometry>
        </mxCell>
        <mxCell id="YxiXrkUBs9q3n1MtnNgC-89" value="" style="shape=tableRow;horizontal=0;startSize=0;swimlaneHead=0;swimlaneBody=0;fillColor=none;collapsible=0;dropTarget=0;points=[[0,0.5],[1,0.5]];portConstraint=eastwest;top=0;left=0;right=0;bottom=0;html=1;" vertex="1" parent="YxiXrkUBs9q3n1MtnNgC-82">
          <mxGeometry y="72" width="180" height="23" as="geometry" />
        </mxCell>
        <mxCell id="YxiXrkUBs9q3n1MtnNgC-90" value="" style="shape=partialRectangle;connectable=0;fillColor=none;top=0;left=0;bottom=0;right=0;editable=1;overflow=hidden;html=1;whiteSpace=wrap;" vertex="1" parent="YxiXrkUBs9q3n1MtnNgC-89">
          <mxGeometry width="60" height="23" as="geometry">
            <mxRectangle width="60" height="23" as="alternateBounds" />
          </mxGeometry>
        </mxCell>
        <mxCell id="YxiXrkUBs9q3n1MtnNgC-91" value="지역명" style="shape=partialRectangle;connectable=0;fillColor=none;top=0;left=0;bottom=0;right=0;align=left;spacingLeft=6;overflow=hidden;html=1;whiteSpace=wrap;" vertex="1" parent="YxiXrkUBs9q3n1MtnNgC-89">
          <mxGeometry x="60" width="120" height="23" as="geometry">
            <mxRectangle width="120" height="23" as="alternateBounds" />
          </mxGeometry>
        </mxCell>
        <mxCell id="YxiXrkUBs9q3n1MtnNgC-105" value="" style="edgeStyle=entityRelationEdgeStyle;fontSize=12;html=1;endArrow=ERoneToMany;startArrow=ERmandOne;rounded=0;startSize=8;endSize=8;curved=1;" edge="1" parent="1" source="YxiXrkUBs9q3n1MtnNgC-83" target="YxiXrkUBs9q3n1MtnNgC-7">
          <mxGeometry width="100" height="100" relative="1" as="geometry">
            <mxPoint x="-21" y="819" as="sourcePoint" />
            <mxPoint x="79" y="719" as="targetPoint" />
          </mxGeometry>
        </mxCell>
        <mxCell id="YxiXrkUBs9q3n1MtnNgC-106" value="" style="edgeStyle=entityRelationEdgeStyle;fontSize=12;html=1;endArrow=ERoneToMany;startArrow=ERmandOne;rounded=0;startSize=8;endSize=8;curved=1;entryX=0.009;entryY=0.611;entryDx=0;entryDy=0;entryPerimeter=0;" edge="1" parent="1" source="YxiXrkUBs9q3n1MtnNgC-4" target="YxiXrkUBs9q3n1MtnNgC-45">
          <mxGeometry width="100" height="100" relative="1" as="geometry">
            <mxPoint x="17" y="891" as="sourcePoint" />
            <mxPoint x="-81" y="604" as="targetPoint" />
          </mxGeometry>
        </mxCell>
        <mxCell id="YxiXrkUBs9q3n1MtnNgC-117" value="" style="edgeStyle=entityRelationEdgeStyle;fontSize=12;html=1;endArrow=ERoneToMany;startArrow=ERmandOne;rounded=0;startSize=8;endSize=8;curved=1;exitX=-0.009;exitY=0.767;exitDx=0;exitDy=0;exitPerimeter=0;" edge="1" parent="1" source="YxiXrkUBs9q3n1MtnNgC-67" target="YxiXrkUBs9q3n1MtnNgC-111">
          <mxGeometry width="100" height="100" relative="1" as="geometry">
            <mxPoint x="208" y="614" as="sourcePoint" />
            <mxPoint x="210" y="779" as="targetPoint" />
            <Array as="points">
              <mxPoint x="432" y="1014" />
            </Array>
          </mxGeometry>
        </mxCell>
      </root>
    </mxGraphModel>
  </diagram>
</mxfile>
